<svg version="1.2" xmlns="http://www.w3.org/2000/svg" viewBox="0 0 32 32" width="32" height="32"><style>.s0{fill:#000000}.s1{fill:none}</style><path fill-rule="evenodd" class="s0" d="m26 9.1c1.9 0 2.9 1.5 3.3 3.4q0.3 0.9 0.4 1.7q0.1 0.9 0.1 1.7q0 0.9-0.1 1.7q-0.1 0.9-0.4 1.7c-0.6 2-1.4 3.4-3.3 3.4h-10v0.9h6.7v2.5c0 1.9-1.7 2.9-3.4 3.4q-0.8 0.2-1.6 0.4q-0.9 0.1-1.7 0.1q-0.9 0-1.7-0.1q-0.8-0.2-1.7-0.4c-1.7-0.5-3.3-1.6-3.3-3.4v-6.4q0-0.6 0.3-1.2q0.2-0.7 0.7-1.1q0.5-0.5 1.1-0.8q0.6-0.2 1.2-0.3h6.7q0.8 0 1.6-0.3q0.8-0.3 1.4-0.9q0.5-0.6 0.9-1.4q0.3-0.8 0.3-1.6v-3zm-6.8 16.2q-0.2 0.1-0.4 0.3q-0.1 0.2-0.2 0.4q-0.1 0.3-0.1 0.5c0 0.5 0.3 1 0.8 1.2c0.4 0.2 1 0.1 1.4-0.3c0.3-0.4 0.4-0.9 0.2-1.4c-0.2-0.5-0.7-0.8-1.2-0.8q-0.2 0.1-0.5 0.1z" /><path class="s1" d="m19.7 25.2c0.6 0 1 0.3 1.2 0.8c0.2 0.5 0.1 1-0.2 1.4c-0.4 0.4-1 0.5-1.4 0.3c-0.5-0.2-0.8-0.7-0.8-1.2q0-0.2 0.1-0.5q0.1-0.2 0.2-0.4q0.2-0.2 0.5-0.3q0.2-0.1 0.4-0.1z" /><path fill-rule="evenodd" class="s0" d="m16.7 2q0.4 0 0.9 0.1q0.4 0 0.9 0q0.4 0.1 0.8 0.2q0.7 0 1.3 0.3q0.6 0.3 1 0.8q0.5 0.5 0.7 1.1q0.3 0.6 0.4 1.2v6.4q0 0.7-0.3 1.3q-0.2 0.6-0.7 1.1q-0.5 0.5-1.1 0.7q-0.6 0.3-1.3 0.3h-6.7q-0.8 0-1.5 0.3q-0.8 0.4-1.4 0.9q-0.6 0.6-0.9 1.4q-0.3 0.7-0.3 1.5v3.1h-2.3c-2 0-3.1-1.4-3.6-3.4q-0.2-0.8-0.3-1.7q-0.1-0.8-0.1-1.7q0-0.8 0.1-1.7q0.1-0.8 0.3-1.7q0.2-0.7 0.5-1.3q0.4-0.7 1-1.1q0.6-0.5 1.3-0.7q0.7-0.3 1.4-0.3h9.2v-0.8h-6.7v-2.6c0-1.9 0.5-2.9 3.3-3.4q0.4-0.1 0.8-0.1q0.4-0.1 0.8-0.1q0.4-0.1 0.8-0.1q0.4 0 0.8 0q0.5 0 0.9 0zm-5 2.1q-0.2 0.1-0.4 0.3q-0.1 0.2-0.2 0.4q-0.1 0.3-0.1 0.5c0 0.5 0.3 1 0.8 1.2c0.4 0.2 1 0.1 1.4-0.3c0.3-0.4 0.4-0.9 0.2-1.4c-0.2-0.5-0.7-0.8-1.2-0.8q-0.2 0.1-0.5 0.1z" /><path class="s1" d="m12.2 4c0.5 0 1 0.3 1.2 0.8c0.2 0.5 0.1 1-0.2 1.4c-0.4 0.4-1 0.5-1.4 0.3c-0.5-0.2-0.8-0.7-0.8-1.2q0-0.2 0.1-0.5q0.1-0.2 0.2-0.4q0.2-0.2 0.4-0.3q0.3 0 0.5-0.1z" /><path class="s1" d="m0 0h32v32h-32z" /></svg>